<svg xmlns="http://www.w3.org/2000/svg" viewBox="20 115.12373288204782 535 344.7440057869812"><rect height="100%" width="100%" x="20" y="115.12373288204782" fill="rgba(166, 166, 166, 1)"/> <svg xmlns="http://www.w3.org/2000/svg" viewBox="0.5 0.11325100064277649 101.99500274658203 117.77375030517578" fill="none" height="117.3146918879139" width="101.59745587585196" y="185.12373288204782" x="236.69963130081632" preserveAspectRatio="xMinYMin" style="overflow: visible;"><path d="M36.7401 75V43.5H36.7821L52.9941 66.474L51.0621 66.054L67.1901 43.5H67.2741V75H62.8221V53.622L63.1161 55.932L51.8601 71.85H51.7761L40.3101 55.932L41.0661 53.832V75H36.7401Z" fill="#070430" style="fill: #ffffff; fill-opacity: 1;"></path><path fill-rule="evenodd" clip-rule="evenodd" d="M51.4974 0.113251L66.3873 8.70994L63.8873 13.0401L51.4974 5.88675L5.5 32.4434V85.5566L51.4974 112.113L97.4948 85.5566V32.4434L85.1049 25.2901L87.6049 20.9599L102.495 29.5566V88.4434L51.4974 117.887L0.5 88.4434V29.5566L51.4974 0.113251Z" fill="#E7C379" style="fill: #e59f4a; fill-opacity: 1;"></path><circle cx="75.5" cy="16.5" r="4.5" fill="#070430" style="fill: #ffffff; fill-opacity: 1;"></circle></svg> <svg xmlns="http://www.w3.org/2000/svg" y="381.12773889791083" viewBox="0.5799999833106995 0.2199999988079071 93.43999481201172 8.739999771118164" x="240.77999910115483" height="8.739999771118164" width="93.43999481201172" style="overflow: visible;"><g fill="#ffffff" fill-opacity="0.6" style=""><path d="M0.58 1.37L0.58 0.31L6.08 0.31L6.08 1.37L3.86 1.37L3.86 8.58L2.75 8.58L2.75 1.37L0.58 1.37ZM8.53 0.31L10.72 0.31Q11.35 0.31 11.89 0.47Q12.42 0.64 12.81 0.97Q13.21 1.29 13.43 1.77Q13.65 2.24 13.65 2.87L13.65 2.87Q13.65 3.36 13.51 3.83Q13.37 4.30 13.04 4.69Q12.70 5.07 12.17 5.30Q11.64 5.54 10.86 5.54L10.86 5.54L9.64 5.54L9.64 8.58L8.53 8.58L8.53 0.31ZM9.64 4.48L10.84 4.48Q11.33 4.48 11.66 4.33Q11.98 4.18 12.17 3.94Q12.35 3.71 12.43 3.43Q12.51 3.16 12.51 2.92L12.51 2.92Q12.51 2.67 12.42 2.40Q12.34 2.13 12.15 1.90Q11.96 1.67 11.66 1.52Q11.35 1.37 10.92 1.37L10.92 1.37L9.64 1.37L9.64 4.48ZM10.88 5.14L12.20 5.10L14.36 8.58L13.08 8.58L10.88 5.14ZM17.75 0.31L17.75 5.65Q17.75 6.21 18.02 6.66Q18.29 7.10 18.74 7.35Q19.18 7.60 19.74 7.60L19.74 7.60Q20.33 7.60 20.78 7.35Q21.24 7.10 21.51 6.66Q21.77 6.21 21.77 5.65L21.77 5.65L21.77 0.31L22.86 0.31L22.86 5.69Q22.86 6.59 22.44 7.27Q22.02 7.94 21.32 8.31Q20.61 8.68 19.74 8.68L19.74 8.68L19.74 8.68Q18.87 8.68 18.18 8.31Q17.48 7.94 17.06 7.27Q16.65 6.59 16.65 5.69L16.65 5.69L16.65 0.31L17.75 0.31ZM30.51 0.94L30.09 1.79Q29.67 1.57 29.16 1.41Q28.66 1.25 28.18 1.25L28.18 1.25Q27.51 1.25 27.12 1.56Q26.72 1.87 26.72 2.38L26.72 2.38Q26.72 2.77 26.98 3.04Q27.23 3.31 27.64 3.50Q28.05 3.70 28.50 3.87L28.50 3.87Q28.89 4.02 29.27 4.20Q29.64 4.38 29.95 4.66Q30.25 4.93 30.43 5.33Q30.60 5.73 30.60 6.33L30.60 6.33Q30.60 6.98 30.28 7.52Q29.95 8.06 29.35 8.37Q28.74 8.68 27.90 8.68L27.90 8.68Q27.35 8.68 26.86 8.55Q26.36 8.42 25.94 8.22Q25.51 8.02 25.18 7.81L25.18 7.81L25.67 6.94Q25.95 7.13 26.30 7.31Q26.66 7.49 27.05 7.59Q27.43 7.70 27.80 7.70L27.80 7.70Q28.19 7.70 28.57 7.56Q28.96 7.42 29.21 7.12Q29.46 6.82 29.46 6.33L29.46 6.33Q29.46 5.91 29.24 5.63Q29.01 5.34 28.65 5.14Q28.28 4.94 27.87 4.78L27.87 4.78Q27.48 4.64 27.08 4.46Q26.68 4.28 26.34 4.02Q25.99 3.77 25.79 3.39Q25.58 3.01 25.58 2.47L25.58 2.47Q25.58 1.82 25.90 1.33Q26.21 0.85 26.76 0.57Q27.31 0.29 28.02 0.26L28.02 0.26Q28.82 0.26 29.43 0.46Q30.04 0.65 30.51 0.94L30.51 0.94ZM32.49 1.37L32.49 0.31L37.99 0.31L37.99 1.37L35.77 1.37L35.77 8.58L34.66 8.58L34.66 1.37L32.49 1.37ZM43.01 8.96L39.72 0.35L41.00 0.35L43.24 6.67L43.05 6.59L44.68 2.36L45.20 3.86L43.01 8.96ZM47.06 8.95L43.69 0.35L44.80 0.35L47.22 6.58L46.99 6.54L49.13 0.35L50.31 0.35L47.06 8.95ZM51.55 4.45L51.55 4.45Q51.55 3.59 51.88 2.83Q52.20 2.07 52.79 1.48Q53.37 0.89 54.13 0.56Q54.89 0.22 55.77 0.22L55.77 0.22Q56.64 0.22 57.40 0.56Q58.17 0.89 58.75 1.48Q59.34 2.07 59.68 2.83Q60.01 3.59 60.01 4.45L60.01 4.45Q60.01 5.33 59.68 6.10Q59.34 6.87 58.75 7.45Q58.17 8.02 57.40 8.35Q56.64 8.68 55.77 8.68L55.77 8.68Q54.89 8.68 54.13 8.36Q53.37 8.03 52.79 7.46Q52.20 6.89 51.88 6.12Q51.55 5.36 51.55 4.45ZM52.69 4.46L52.69 4.46Q52.69 5.12 52.93 5.68Q53.18 6.25 53.60 6.68Q54.02 7.12 54.58 7.37Q55.14 7.61 55.80 7.61L55.80 7.61Q56.44 7.61 57.00 7.37Q57.56 7.12 57.97 6.68Q58.38 6.25 58.62 5.68Q58.86 5.12 58.86 4.45L58.86 4.45Q58.86 3.80 58.62 3.22Q58.38 2.64 57.96 2.21Q57.54 1.77 56.97 1.53Q56.41 1.28 55.77 1.28L55.77 1.28Q55.12 1.28 54.56 1.53Q54.00 1.79 53.58 2.22Q53.15 2.66 52.92 3.23Q52.69 3.81 52.69 4.46ZM62.56 0.31L64.76 0.31Q65.39 0.31 65.92 0.47Q66.45 0.64 66.85 0.97Q67.24 1.29 67.46 1.77Q67.69 2.24 67.69 2.87L67.69 2.87Q67.69 3.36 67.54 3.83Q67.40 4.30 67.07 4.69Q66.74 5.07 66.21 5.30Q65.67 5.54 64.90 5.54L64.90 5.54L63.67 5.54L63.67 8.58L62.56 8.58L62.56 0.31ZM63.67 4.48L64.87 4.48Q65.36 4.48 65.69 4.33Q66.02 4.18 66.20 3.94Q66.38 3.71 66.46 3.43Q66.54 3.16 66.54 2.92L66.54 2.92Q66.54 2.67 66.46 2.40Q66.37 2.13 66.18 1.90Q65.99 1.67 65.69 1.52Q65.39 1.37 64.95 1.37L64.95 1.37L63.67 1.37L63.67 4.48ZM64.92 5.14L66.23 5.10L68.40 8.58L67.12 8.58L64.92 5.14ZM70.07 1.37L70.07 0.31L75.56 0.31L75.56 1.37L73.34 1.37L73.34 8.58L72.23 8.58L72.23 1.37L70.07 1.37ZM83.46 0.31L84.56 0.31L84.56 8.58L83.46 8.58L83.46 4.96L79.12 4.96L79.12 8.58L78.01 8.58L78.01 0.31L79.12 0.31L79.12 3.90L83.46 3.90L83.46 0.31ZM89.82 8.58L89.82 5.83L86.76 0.31L88.12 0.31L90.58 4.88L90.24 4.90L92.67 0.31L94.02 0.31L90.93 5.83L90.93 8.58L89.82 8.58Z" transform="translate(0, 0)"></path></g></svg> <svg xmlns="http://www.w3.org/2000/svg" y="327.47772736380387" viewBox="3.5 -0.9300000667572021 395 33.58000183105469" x="90" height="33.58000183105469" width="395" style="overflow: visible;"><g fill="#ffffff" fill-opacity="1" style=""><path d="M7.04 25.75L3.50 25.75L3.50 0L3.54 0L16.79 18.78L15.21 18.44L28.40 0L28.46 0L28.46 25.75L24.82 25.75L24.82 8.27L25.07 10.16L15.86 23.18L15.79 23.18L6.42 10.16L7.04 8.45L7.04 25.75ZM44.88 26.10L44.88 26.10Q42.37 26.10 40.59 25.12Q38.80 24.14 37.84 22.40Q36.88 20.67 36.88 18.44L36.88 18.44Q36.88 16.31 37.96 14.58Q39.04 12.84 40.88 11.81Q42.71 10.78 44.95 10.78L44.95 10.78Q47.83 10.78 49.74 12.46Q51.64 14.15 52.29 17.17L52.29 17.17L40.59 21.22L39.76 19.16L49.13 15.79L48.41 16.24Q48.00 15.18 47.11 14.37Q46.22 13.56 44.67 13.56L44.67 13.56Q43.44 13.56 42.46 14.16Q41.48 14.76 40.91 15.81Q40.34 16.86 40.34 18.27L40.34 18.27Q40.34 19.71 40.95 20.79Q41.55 21.87 42.59 22.49Q43.64 23.11 44.95 23.11L44.95 23.11Q45.87 23.11 46.71 22.76Q47.56 22.42 48.31 21.91L48.31 21.91L49.92 24.52Q48.79 25.24 47.47 25.67Q46.15 26.10 44.88 26.10ZM61.02 11.40L61.02 5.05L64.55 5.05L64.55 11.40L68.40 11.40L68.40 14.18L64.55 14.18L64.55 25.75L61.02 25.75L61.02 14.18L58.47 14.18L58.47 11.40L61.02 11.40ZM76.43 25.75L76.43 0.82L80.11 0.82L80.11 22.22L92.57 22.22L92.57 25.75L76.43 25.75ZM107.33 26.10L107.33 26.10Q104.83 26.10 103.04 25.12Q101.26 24.14 100.30 22.40Q99.33 20.67 99.33 18.44L99.33 18.44Q99.33 16.31 100.42 14.58Q101.50 12.84 103.33 11.81Q105.17 10.78 107.40 10.78L107.40 10.78Q110.29 10.78 112.19 12.46Q114.10 14.15 114.75 17.17L114.75 17.17L103.04 21.22L102.22 19.16L111.59 15.79L110.87 16.24Q110.46 15.18 109.57 14.37Q108.67 13.56 107.13 13.56L107.13 13.56Q105.89 13.56 104.91 14.16Q103.94 14.76 103.37 15.81Q102.80 16.86 102.80 18.27L102.80 18.27Q102.80 19.71 103.40 20.79Q104.00 21.87 105.05 22.49Q106.10 23.11 107.40 23.11L107.40 23.11Q108.33 23.11 109.17 22.76Q110.01 22.42 110.77 21.91L110.77 21.91L112.38 24.52Q111.25 25.24 109.93 25.67Q108.60 26.10 107.33 26.10ZM130.72 26.10L130.72 26.10Q129.14 26.10 127.70 25.39Q126.25 24.69 125.40 23.49L125.40 23.49L125.60 22.42L125.60 32.65L122.10 32.65L122.10 11.12L125.15 11.12L125.64 14.63L125.26 13.63Q126.32 12.40 127.88 11.57Q129.45 10.75 131.37 10.75L131.37 10.75Q133.40 10.75 135.01 11.71Q136.62 12.67 137.55 14.42Q138.48 16.17 138.48 18.54L138.48 18.54Q138.48 20.88 137.46 22.58Q136.45 24.28 134.70 25.19Q132.95 26.10 130.72 26.10ZM130.03 23.31L130.03 23.31Q131.34 23.31 132.45 22.70Q133.57 22.08 134.24 21.00Q134.91 19.91 134.91 18.58L134.91 18.58Q134.91 17.17 134.27 16.09Q133.64 15.00 132.59 14.39Q131.54 13.77 130.27 13.77L130.27 13.77Q129.07 13.77 128.14 14.20Q127.21 14.63 126.56 15.38Q125.91 16.14 125.64 17.20L125.64 17.20L125.64 19.85Q125.84 20.84 126.46 21.63Q127.08 22.42 128.00 22.87Q128.93 23.31 130.03 23.31ZM161.24 25.75L161.24 0.82L164.92 0.82L164.92 25.75L161.24 25.75ZM174.56 11.37L177.72 11.37L178.03 14.66L177.89 14.22Q178.62 12.67 180.13 11.73Q181.64 10.78 183.70 10.78L183.70 10.78Q185.72 10.78 187.05 11.98Q188.37 13.19 188.40 15.11L188.40 15.11L188.40 25.75L184.87 25.75L184.87 16.34Q184.83 15.25 184.21 14.54Q183.59 13.84 182.29 13.80L182.29 13.80Q181.12 13.80 180.16 14.51Q179.20 15.21 178.65 16.41Q178.10 17.61 178.10 19.19L178.10 19.19L178.10 25.75L174.56 25.75L174.56 11.37ZM198.63 11.40L198.63 5.05L202.17 5.05L202.17 11.40L206.02 11.40L206.02 14.18L202.17 14.18L202.17 25.75L198.63 25.75L198.63 14.18L196.09 14.18L196.09 11.40L198.63 11.40ZM220.03 26.10L220.03 26.10Q217.52 26.10 215.73 25.12Q213.95 24.14 212.99 22.40Q212.02 20.67 212.02 18.44L212.02 18.44Q212.02 16.31 213.11 14.58Q214.19 12.84 216.02 11.81Q217.86 10.78 220.09 10.78L220.09 10.78Q222.98 10.78 224.88 12.46Q226.79 14.15 227.44 17.17L227.44 17.17L215.73 21.22L214.91 19.16L224.28 15.79L223.56 16.24Q223.15 15.18 222.26 14.37Q221.36 13.56 219.82 13.56L219.82 13.56Q218.58 13.56 217.60 14.16Q216.63 14.76 216.06 15.81Q215.49 16.86 215.49 18.27L215.49 18.27Q215.49 19.71 216.09 20.79Q216.69 21.87 217.74 22.49Q218.79 23.11 220.09 23.11L220.09 23.11Q221.02 23.11 221.86 22.76Q222.70 22.42 223.46 21.91L223.46 21.91L225.07 24.52Q223.94 25.24 222.62 25.67Q221.30 26.10 220.03 26.10ZM234.79 11.37L237.95 11.37L238.29 15.49L238.12 14.94Q238.70 13.63 239.77 12.70Q240.83 11.78 241.98 11.28Q243.13 10.78 243.92 10.78L243.92 10.78L243.75 14.28Q242.10 14.18 240.88 14.90Q239.67 15.62 238.98 16.82Q238.29 18.03 238.29 19.40L238.29 19.40L238.29 25.75L234.79 25.75L234.79 11.37ZM251.37 11.37L254.53 11.37L254.84 14.66L254.70 14.22Q255.43 12.67 256.94 11.73Q258.45 10.78 260.51 10.78L260.51 10.78Q262.53 10.78 263.86 11.98Q265.18 13.19 265.21 15.11L265.21 15.11L265.21 25.75L261.67 25.75L261.67 16.34Q261.64 15.25 261.02 14.54Q260.40 13.84 259.10 13.80L259.10 13.80Q257.93 13.80 256.97 14.51Q256.01 15.21 255.46 16.41Q254.91 17.61 254.91 19.19L254.91 19.19L254.91 25.75L251.37 25.75L251.37 11.37ZM280.08 26.10L280.08 26.10Q278.05 26.10 276.40 25.25Q274.76 24.41 273.80 22.73Q272.83 21.05 272.83 18.58L272.83 18.58Q272.83 16.14 273.85 14.39Q274.86 12.64 276.53 11.69Q278.19 10.75 280.15 10.75L280.15 10.75Q282.21 10.75 283.53 11.62Q284.85 12.50 285.61 13.67L285.61 13.67L285.37 14.22L285.71 11.37L288.97 11.37L288.97 25.75L285.44 25.75L285.44 22.15L285.81 23.01Q285.68 23.28 285.23 23.78Q284.78 24.28 284.04 24.82Q283.31 25.37 282.33 25.73Q281.35 26.10 280.08 26.10ZM281.04 23.21L281.04 23.21Q282.17 23.21 283.07 22.80Q283.96 22.39 284.58 21.63Q285.19 20.88 285.44 19.85L285.44 19.85L285.44 16.86Q285.16 15.90 284.51 15.19Q283.86 14.49 282.95 14.08Q282.04 13.67 280.94 13.67L280.94 13.67Q279.70 13.67 278.67 14.27Q277.64 14.87 277.02 15.93Q276.40 17.00 276.40 18.40L276.40 18.40Q276.40 19.74 277.04 20.84Q277.68 21.94 278.74 22.58Q279.80 23.21 281.04 23.21ZM299.20 11.40L299.20 5.05L302.74 5.05L302.74 11.40L306.59 11.40L306.59 14.18L302.74 14.18L302.74 25.75L299.20 25.75L299.20 14.18L296.66 14.18L296.66 11.40L299.20 11.40ZM313.83 25.75L313.83 11.37L317.37 11.37L317.37 25.75L313.83 25.75ZM313.63 6.21L313.63 6.21Q313.63 5.39 314.28 4.84Q314.93 4.29 315.69 4.29L315.69 4.29Q316.47 4.29 317.09 4.84Q317.71 5.39 317.71 6.21L317.71 6.21Q317.71 7.04 317.09 7.57Q316.47 8.10 315.69 8.10L315.69 8.10Q314.93 8.10 314.28 7.57Q313.63 7.04 313.63 6.21ZM324.96 18.40L324.96 18.40Q324.96 16.24 325.99 14.51Q327.02 12.77 328.84 11.78Q330.66 10.78 332.99 10.78L332.99 10.78Q335.36 10.78 337.15 11.78Q338.93 12.77 339.91 14.51Q340.89 16.24 340.89 18.40L340.89 18.40Q340.89 20.57 339.91 22.32Q338.93 24.07 337.15 25.08Q335.36 26.10 332.96 26.10L332.96 26.10Q330.66 26.10 328.85 25.17Q327.05 24.24 326.00 22.51Q324.96 20.77 324.96 18.40ZM328.53 18.44L328.53 18.44Q328.53 19.78 329.11 20.86Q329.69 21.94 330.69 22.58Q331.69 23.21 332.92 23.21L332.92 23.21Q334.19 23.21 335.19 22.58Q336.18 21.94 336.75 20.86Q337.32 19.78 337.32 18.44L337.32 18.44Q337.32 17.10 336.75 16.03Q336.18 14.97 335.19 14.32Q334.19 13.67 332.92 13.67L332.92 13.67Q331.65 13.67 330.66 14.32Q329.66 14.97 329.09 16.05Q328.53 17.13 328.53 18.44ZM348.51 11.37L351.67 11.37L351.98 14.66L351.84 14.22Q352.56 12.67 354.07 11.73Q355.58 10.78 357.64 10.78L357.64 10.78Q359.67 10.78 360.99 11.98Q362.31 13.19 362.35 15.11L362.35 15.11L362.35 25.75L358.81 25.75L358.81 16.34Q358.78 15.25 358.16 14.54Q357.54 13.84 356.24 13.80L356.24 13.80Q355.07 13.80 354.11 14.51Q353.15 15.21 352.60 16.41Q352.05 17.61 352.05 19.19L352.05 19.19L352.05 25.75L348.51 25.75L348.51 11.37ZM377.22 26.10L377.22 26.10Q375.19 26.10 373.54 25.25Q371.89 24.41 370.93 22.73Q369.97 21.05 369.97 18.58L369.97 18.58Q369.97 16.14 370.98 14.39Q372.00 12.64 373.66 11.69Q375.33 10.75 377.28 10.75L377.28 10.75Q379.34 10.75 380.67 11.62Q381.99 12.50 382.74 13.67L382.74 13.67L382.50 14.22L382.85 11.37L386.11 11.37L386.11 25.75L382.57 25.75L382.57 22.15L382.95 23.01Q382.81 23.28 382.37 23.78Q381.92 24.28 381.18 24.82Q380.44 25.37 379.46 25.73Q378.49 26.10 377.22 26.10ZM378.18 23.21L378.18 23.21Q379.31 23.21 380.20 22.80Q381.10 22.39 381.71 21.63Q382.33 20.88 382.57 19.85L382.57 19.85L382.57 16.86Q382.30 15.90 381.64 15.19Q380.99 14.49 380.08 14.08Q379.17 13.67 378.07 13.67L378.07 13.67Q376.84 13.67 375.81 14.27Q374.78 14.87 374.16 15.93Q373.54 17.00 373.54 18.40L373.54 18.40Q373.54 19.74 374.18 20.84Q374.81 21.94 375.88 22.58Q376.94 23.21 378.18 23.21ZM394.97 25.75L394.97-0.93L398.50-0.93L398.50 25.75L394.97 25.75Z" transform="translate(0, 0)"></path></g></svg></svg>